<svg xmlns="http://www.w3.org/2000/svg" xmlns:xlink="http://www.w3.org/1999/xlink" viewBox="0 0 78.86 79.32"><defs><style>.cls-1{fill:none;stroke:#3cb3dc;stroke-width:2px;}</style></defs><g id="Layer_2" data-name="Layer 2"><g id="Layer_1-2" data-name="Layer 1"><path class="cls-1" d="M1,71.39V7.93a.38.38,0,0,1,.35-.36L51.37,1a.41.41,0,0,1,.48.36V78a.41.41,0,0,1-.48.36l-50-6.57A.39.39,0,0,1,1,71.39Z"/><path class="cls-1" d="M77.86,26.71V8.21a1.1,1.1,0,0,0-1.17-1H51.85v67H76.69a1.1,1.1,0,0,0,1.17-1V26.71Z"/><path class="cls-1" d="M51.85,69h5.91V10.28H51.85Z"/><path class="cls-1" d="M57.76,68h4.73V12.34H57.76Z"/><path class="cls-1" d="M62.49,67h4.73V13.37H62.49Z"/><image width="2363" height="2363" transform="translate(14.48 28.21) scale(0.01 0.01)" xlink:href="E:%5CProjects%5CAbdRahman%5Cimages%5Clogo.png"/></g></g></svg>